<svg width="20" height="22" viewBox="0 0 20 22" fill="none" xmlns="http://www.w3.org/2000/svg">
<path fill-rule="evenodd" clip-rule="evenodd" d="M0.5 11.5C0.5 9.42893 2.17893 7.75 4.25 7.75H15.7504C17.8214 7.75 19.5004 9.42893 19.5004 11.5V18.0003C19.5004 20.0713 17.8214 21.7503 15.7504 21.7503H4.25C2.17893 21.7503 0.5 20.0713 0.5 18.0003V11.5ZM4.25 9.25C3.00736 9.25 2 10.2574 2 11.5V18.0003C2 19.2429 3.00736 20.2503 4.25 20.2503H15.7504C16.993 20.2503 18.0004 19.2429 18.0004 18.0003V11.5C18.0004 10.2574 16.993 9.25 15.7504 9.25H4.25Z" fill="white"/>
<path fill-rule="evenodd" clip-rule="evenodd" d="M7.08777 2.91498C6.30919 3.6788 5.75 4.85809 5.75 6.51854V8.50016C5.75 8.91437 5.41421 9.25016 5 9.25016C4.58579 9.25016 4.25 8.91437 4.25 8.50016V6.51854C4.25 4.4999 4.94084 2.91991 6.0373 1.84422C7.12562 0.776522 8.569 0.24998 10.0001 0.25C11.4312 0.25002 12.8746 0.776601 13.9629 1.84431C15.0594 2.92 15.7502 4.49999 15.7502 6.51859V8.50016C15.7502 8.91437 15.4144 9.25016 15.0002 9.25016C14.586 9.25016 14.2502 8.91437 14.2502 8.50016V6.51859C14.2502 4.85819 13.691 3.6789 12.9124 2.91506C12.1257 2.14323 11.069 1.75001 10.0001 1.75C8.93116 1.74999 7.87448 2.14317 7.08777 2.91498Z" fill="white"/>
<path fill-rule="evenodd" clip-rule="evenodd" d="M10 16.75C9.58579 16.75 9.25 16.4142 9.25 16L9.25 13.4999C9.25 13.0857 9.58579 12.7499 10 12.7499C10.4142 12.7499 10.75 13.0857 10.75 13.4999L10.75 16C10.75 16.4142 10.4142 16.75 10 16.75Z" fill="white"/>
</svg>
