<svg width="24" height="24" viewBox="0 0 24 24" fill="none" xmlns="http://www.w3.org/2000/svg">
<path fill-rule="evenodd" clip-rule="evenodd" d="M2.53125 12.7187C2.53125 10.6477 4.21018 8.96875 6.28125 8.96875H17.7198C19.7908 8.96875 21.4698 10.6477 21.4698 12.7188V18.9991C21.4698 21.0702 19.7908 22.7491 17.7198 22.7491H6.28125C4.21018 22.7491 2.53125 21.0702 2.53125 18.9991V12.7187ZM6.28125 10.4688C5.03861 10.4688 4.03125 11.4761 4.03125 12.7187V18.9991C4.03125 20.2418 5.03861 21.2491 6.28125 21.2491H17.7198C18.9624 21.2491 19.9698 20.2418 19.9698 18.9991V12.7188C19.9698 11.4761 18.9624 10.4688 17.7198 10.4688H6.28125Z" fill="white"/>
<path fill-rule="evenodd" clip-rule="evenodd" d="M8.96234 4.16196C8.26371 4.9492 7.76953 6.12177 7.76953 7.77193V9.71869C7.76953 10.1329 7.43374 10.4687 7.01953 10.4687C6.60532 10.4687 6.26953 10.1329 6.26953 9.71869V7.77193C6.26953 5.80772 6.86526 4.26517 7.84042 3.16632C8.81084 2.07281 10.1127 1.46897 11.4399 1.29948C14.0508 0.966045 16.9724 2.32216 17.7114 5.23619C17.8132 5.6377 17.5703 6.04572 17.1687 6.14753C16.7672 6.24935 16.3592 6.0064 16.2574 5.60489C15.7507 3.60688 13.6899 2.52431 11.6299 2.7874C10.6215 2.91617 9.6657 3.36938 8.96234 4.16196Z" fill="white"/>
<path fill-rule="evenodd" clip-rule="evenodd" d="M12.0016 17.9883C11.5045 17.9883 11.1016 17.5853 11.1016 17.0883L11.1016 14.6322C11.1016 14.1351 11.5045 13.7322 12.0016 13.7322C12.4986 13.7322 12.9016 14.1351 12.9016 14.6322L12.9016 17.0883C12.9016 17.5853 12.4986 17.9883 12.0016 17.9883Z" fill="white"/>
</svg>
